<svg width="22" height="26" viewBox="0 0 22 26" fill="none" xmlns="http://www.w3.org/2000/svg">
<path d="M6.17157 4H3.82843C3.29799 4 2.78929 4.21071 2.41421 4.58579L1.58579 5.41421C1.21071 5.78929 1 6.29799 1 6.82843V9.17157C1 9.70201 1.21071 10.2107 1.58579 10.5858L2.41421 11.4142C2.78929 11.7893 3.29799 12 3.82843 12H6.17157C6.70201 12 7.21071 11.7893 7.58579 11.4142L8.41421 10.5858C8.78929 10.2107 9 9.70201 9 9.17157V6.82843C9 6.29799 8.78929 5.78929 8.41421 5.41421L7.58579 4.58579C7.21071 4.21071 6.70201 4 6.17157 4Z" fill="url(#paint0_linear_1_16)" stroke="#343437" stroke-linecap="round" stroke-linejoin="round"/>
<path d="M12.4004 9.22049L12.5576 8.70373L17.4314 1.90409C17.7856 1.40996 18.3582 1.11925 18.9661 1.12493L19.05 1.12571C19.8385 1.13308 20.5255 1.66513 20.7299 2.42678C20.8663 2.93499 20.7676 3.47758 20.4611 3.90526L15.5066 10.8175L15.0677 11.1323C14.8903 11.2595 14.735 11.4149 14.6078 11.5923L7.12162 22.0367L4.95477 24.1849C4.82059 24.318 4.64788 24.4053 4.46121 24.4346C3.97662 24.5104 3.52072 24.1837 3.43693 23.7004L3.43165 23.6699C3.40262 23.5025 3.42002 23.3304 3.48194 23.1721L4.6263 20.2481L12.1125 9.80376C12.2397 9.62635 12.3369 9.42932 12.4004 9.22049Z" fill="url(#paint1_linear_1_16)"/>
<path d="M12.5576 8.70373L12.4004 9.22049C12.3369 9.42932 12.2397 9.62635 12.1125 9.80375L4.6263 20.2481M12.5576 8.70373L17.4314 1.90409C17.7856 1.40996 18.3582 1.11925 18.9661 1.12493L19.05 1.12571C19.8385 1.13308 20.5255 1.66513 20.7299 2.42678V2.42678C20.8663 2.93499 20.7676 3.47758 20.4611 3.90526L15.5066 10.8175M12.5576 8.70373L13.1887 9.73337C13.4916 10.2276 13.9941 10.566 14.5659 10.6611L15.5066 10.8175M4.6263 20.2481L3.48194 23.1721C3.42002 23.3304 3.40262 23.5025 3.43165 23.6699L3.43693 23.7004C3.52072 24.1837 3.97662 24.5104 4.46121 24.4346V24.4346C4.64788 24.4053 4.82059 24.318 4.95477 24.1849L7.12162 22.0367M4.6263 20.2481L5.02082 20.8562C5.26136 21.2269 5.6179 21.5076 6.03477 21.6543L7.12162 22.0367M7.12162 22.0367L14.6078 11.5923C14.735 11.4149 14.8903 11.2595 15.0677 11.1323L15.5066 10.8175" stroke="#343437" stroke-width="0.5" stroke-linecap="round" stroke-linejoin="round"/>
<defs>
<linearGradient id="paint0_linear_1_16" x1="5" y1="4" x2="5" y2="12" gradientUnits="userSpaceOnUse">
<stop stop-color="#343437"/>
<stop offset="1" stop-color="#808080"/>
</linearGradient>
<linearGradient id="paint1_linear_1_16" x1="2.81569" y1="26.8643" x2="17.1866" y2="-1.28962" gradientUnits="userSpaceOnUse">
<stop stop-color="#343437"/>
<stop offset="1" stop-color="#808080"/>
</linearGradient>
</defs>
</svg>
